<svg xmlns="http://www.w3.org/2000/svg" xmlns:xlink="http://www.w3.org/1999/xlink" width="334.276" height="316.814" viewBox="0 0 334.276 316.814">
  <defs>
    <linearGradient id="linear-gradient" x1="-0.27" y1="1.031" x2="1.11" y2="-0.048" gradientUnits="objectBoundingBox">
      <stop offset="0" stop-color="#14e5ef"/>
      <stop offset="1" stop-color="#6b00a3"/>
    </linearGradient>
    <filter id="Ellipse_11" x="50.135" y="216.814" width="100" height="100" filterUnits="userSpaceOnUse">
      <feOffset dx="4" dy="4" input="SourceAlpha"/>
      <feGaussianBlur stdDeviation="7.5" result="blur"/>
      <feFlood flood-color="#6b00a3" flood-opacity="0.4"/>
      <feComposite operator="in" in2="blur"/>
      <feComposite in="SourceGraphic"/>
    </filter>
    <filter id="Ellipse_12" x="234.276" y="112.948" width="100" height="100" filterUnits="userSpaceOnUse">
      <feOffset dx="4" dy="4" input="SourceAlpha"/>
      <feGaussianBlur stdDeviation="7.5" result="blur-2"/>
      <feFlood flood-color="#ffce00" flood-opacity="0.4"/>
      <feComposite operator="in" in2="blur-2"/>
      <feComposite in="SourceGraphic"/>
    </filter>
    <filter id="Ellipse_13" x="51.388" y="0" width="100" height="100" filterUnits="userSpaceOnUse">
      <feOffset dx="4" dy="4" input="SourceAlpha"/>
      <feGaussianBlur stdDeviation="7.5" result="blur-3"/>
      <feFlood flood-color="#39ecff" flood-opacity="0.4"/>
      <feComposite operator="in" in2="blur-3"/>
      <feComposite in="SourceGraphic"/>
    </filter>
  </defs>
  <g id="Content-1" transform="translate(-151.294 -832.052)" style="isolation: isolate">
    <path id="Path_26" data-name="Path 26" d="M151.294,927.844v117.777a22.89,22.89,0,0,0,11.445,19.823l102,58.889a22.89,22.89,0,0,0,22.89,0l102-58.889a22.888,22.888,0,0,0,11.445-19.823V927.844a22.889,22.889,0,0,0-11.445-19.824l-102-58.888a22.89,22.89,0,0,0-22.89,0l-102,58.888A22.891,22.891,0,0,0,151.294,927.844Z" fill="#f5f5f5" opacity="0.5"/>
    <g id="Group_13" data-name="Group 13">
      <path id="Path_27" data-name="Path 27" d="M356.32,949.039l-47.514-19.727a4.849,4.849,0,0,0-3.718,0l-47.513,19.727a4.849,4.849,0,0,0-2.99,4.478V977.5a81.193,81.193,0,0,0,50.53,75.2,4.844,4.844,0,0,0,3.665,0,81.192,81.192,0,0,0,50.529-75.2V953.517A4.848,4.848,0,0,0,356.32,949.039ZM349.613,977.5a71.512,71.512,0,0,1-42.666,65.446A71.515,71.515,0,0,1,264.282,977.5V956.754l42.665-17.715,42.666,17.715ZM301.588,993.84,322.428,973a4.848,4.848,0,0,1,6.856,6.857l-24.267,24.267a4.849,4.849,0,0,1-6.857,0l-13.549-13.55a4.848,4.848,0,0,1,6.856-6.856Z" fill="url(#linear-gradient)"/>
    </g>
    <path id="Path_28" data-name="Path 28" d="M186.6,929.232v115a22.888,22.888,0,0,0,11.445,19.823l99.593,57.5a22.89,22.89,0,0,0,22.89,0l99.594-57.5a22.89,22.89,0,0,0,11.445-19.823v-115a22.89,22.89,0,0,0-11.445-19.823l-99.594-57.5a22.889,22.889,0,0,0-22.89,0l-99.593,57.5A22.888,22.888,0,0,0,186.6,929.232Z" fill="none" stroke="#6b00a3" stroke-miterlimit="10" stroke-width="0.75"/>
    <g id="Group_14" data-name="Group 14">
      <g transform="matrix(1, 0, 0, 1, 151.29, 832.05)" filter="url(#Ellipse_11)">
        <circle id="Ellipse_11-2" data-name="Ellipse 11" cx="27.5" cy="27.5" r="27.5" transform="translate(68.64 235.31)" fill="#6b00a3"/>
      </g>
    </g>
    <g id="Group_16" data-name="Group 16">
      <g transform="matrix(1, 0, 0, 1, 151.29, 832.05)" filter="url(#Ellipse_12)">
        <circle id="Ellipse_12-2" data-name="Ellipse 12" cx="27.5" cy="27.5" r="27.5" transform="translate(252.78 131.45)" fill="#ffce00"/>
      </g>
      <g id="Group_15" data-name="Group 15">
        <path id="Path_29" data-name="Path 29" d="M439.481,1003.651H423.66a2.64,2.64,0,0,1-2.637-2.637V988.708a2.64,2.64,0,0,1,2.637-2.637h15.821a2.641,2.641,0,0,1,2.637,2.637v12.306A2.641,2.641,0,0,1,439.481,1003.651ZM423.66,987.829a.88.88,0,0,0-.879.879v12.306a.88.88,0,0,0,.879.879h15.821a.88.88,0,0,0,.879-.879V988.708a.88.88,0,0,0-.879-.879Z"/>
        <path id="Path_30" data-name="Path 30" d="M437.723,987.829a.879.879,0,0,1-.879-.879v-4.394a5.274,5.274,0,1,0-10.548,0v4.394a.879.879,0,0,1-1.758,0v-4.394a7.032,7.032,0,1,1,14.064,0v4.394A.879.879,0,0,1,437.723,987.829Z"/>
        <path id="Path_31" data-name="Path 31" d="M431.57,995.447a2.344,2.344,0,1,1,2.344-2.344A2.346,2.346,0,0,1,431.57,995.447Zm0-2.93a.586.586,0,1,0,.586.586A.587.587,0,0,0,431.57,992.517Z"/>
        <path id="Path_32" data-name="Path 32" d="M431.57,998.963a.88.88,0,0,1-.879-.879v-3.223a.879.879,0,1,1,1.758,0v3.223A.88.88,0,0,1,431.57,998.963Z"/>
      </g>
    </g>
    <g id="Group_20" data-name="Group 20">
      <g transform="matrix(1, 0, 0, 1, 151.29, 832.05)" filter="url(#Ellipse_13)">
        <circle id="Ellipse_13-2" data-name="Ellipse 13" cx="27.5" cy="27.5" r="27.5" transform="translate(69.89 18.5)" fill="#39ecff"/>
      </g>
      <g id="Group_19" data-name="Group 19">
        <g id="Group_18" data-name="Group 18">
          <g id="Group_17" data-name="Group 17">
            <path id="Path_33" data-name="Path 33" d="M243.234,885.864a9.5,9.5,0,0,1-1.11-4.626,5.608,5.608,0,0,1,11.2,0,.6.6,0,1,0,1.2,0,6.806,6.806,0,0,0-13.6,0,10.679,10.679,0,0,0,1.266,5.214,12.574,12.574,0,0,0,2.412,3.162.6.6,0,0,0,.426.18.538.538,0,0,0,.414-.18.592.592,0,0,0,.006-.846A11.376,11.376,0,0,1,243.234,885.864Z" fill="#3b78ff"/>
            <path id="Path_34" data-name="Path 34" d="M241.05,868.944a14.026,14.026,0,0,1,13.368.006.643.643,0,0,0,.276.066h0a.6.6,0,0,0,.276-1.134,15.246,15.246,0,0,0-14.5.006.6.6,0,1,0,.576,1.056Z" fill="#3b78ff"/>
            <path id="Path_35" data-name="Path 35" d="M247.68,871.848a9.967,9.967,0,0,0-9.012,5.514,8.885,8.885,0,0,0-.822,3.882,13.361,13.361,0,0,0,.876,4.746.6.6,0,0,0,1.128-.42,11.972,11.972,0,0,1-.8-4.326,7.708,7.708,0,0,1,.7-3.366,8.754,8.754,0,0,1,7.932-4.836,8.467,8.467,0,0,1,8.694,8.2,2.5,2.5,0,0,1-4.992,0,3.7,3.7,0,0,0-7.392,0,8.785,8.785,0,0,0,2.6,6.264,9.165,9.165,0,0,0,4.458,2.52.447.447,0,0,0,.156.024.6.6,0,0,0,.156-1.176,8.1,8.1,0,0,1-3.93-2.214,7.592,7.592,0,0,1-2.244-5.412,2.5,2.5,0,0,1,4.992,0,3.7,3.7,0,0,0,7.392,0A9.67,9.67,0,0,0,247.68,871.848Z" fill="#3b78ff"/>
            <path id="Path_36" data-name="Path 36" d="M258.414,874.332a12.554,12.554,0,0,0-4.5-3.9,13.846,13.846,0,0,0-12.378.012,12.5,12.5,0,0,0-4.506,3.93.6.6,0,0,0,.144.834.625.625,0,0,0,.348.108.611.611,0,0,0,.492-.246,11.268,11.268,0,0,1,4.074-3.558,12.626,12.626,0,0,1,11.28-.012,11.265,11.265,0,0,1,4.068,3.528.6.6,0,0,0,.84.138A.6.6,0,0,0,258.414,874.332Z" fill="#3b78ff"/>
            <path id="Path_37" data-name="Path 37" d="M254.88,886.26a7.878,7.878,0,0,1-1.254.114,5.192,5.192,0,0,1-5.37-5.13.6.6,0,1,0-1.2,0,6.4,6.4,0,0,0,2.85,5.268,6.518,6.518,0,0,0,3.72,1.062,8.593,8.593,0,0,0,1.464-.132.6.6,0,1,0-.21-1.182Z" fill="#3b78ff"/>
          </g>
        </g>
      </g>
    </g>
    <g id="Group_21" data-name="Group 21">
      <path id="Path_38" data-name="Path 38" d="M252.5,1103.865h-6.525a.75.75,0,0,1-.75-.75v-1.86l-1.252.376a1.639,1.639,0,0,1-.535.082,1.834,1.834,0,0,1-1.838-1.826v-1.761h-1.063a1.108,1.108,0,0,1-.939-1.7l1.7-2.664a1.928,1.928,0,0,0,.306-1.045,6.913,6.913,0,0,1,13.825,0,6.767,6.767,0,0,1-1.259,3.938,4.912,4.912,0,0,0-.916,2.859v3.6a.75.75,0,0,1-.75.75Zm-5.775-1.5h5.025v-2.855a6.41,6.41,0,0,1,1.193-3.729,5.272,5.272,0,0,0,.981-3.068,5.412,5.412,0,0,0-10.824,0,3.451,3.451,0,0,1-.541,1.853l-1.312,2.06h1.1a.75.75,0,0,1,.75.75v2.511a.332.332,0,0,0,.338.326c.01,0,.093-.015.1-.018l2.218-.667a.75.75,0,0,1,.966.718v2.118Z" fill="#fff"/>
      <path id="Path_39" data-name="Path 39" d="M258.929,1094.365h-23a.75.75,0,0,1,0-1.5h23a.75.75,0,0,1,0,1.5Z" fill="#fff"/>
      <path id="Path_40" data-name="Path 40" d="M236.179,1089.365a.75.75,0,0,1-.75-.75v-3a2.752,2.752,0,0,1,2.75-2.75h3a.75.75,0,0,1,0,1.5h-3a1.252,1.252,0,0,0-1.25,1.25v3A.75.75,0,0,1,236.179,1089.365Z" fill="#fff"/>
      <path id="Path_41" data-name="Path 41" d="M241.179,1106.865h-3a2.752,2.752,0,0,1-2.75-2.75v-3a.75.75,0,0,1,1.5,0v3a1.252,1.252,0,0,0,1.25,1.25h3a.75.75,0,0,1,0,1.5Z" fill="#fff"/>
      <path id="Path_42" data-name="Path 42" d="M258.679,1089.365a.75.75,0,0,1-.75-.75v-3a1.252,1.252,0,0,0-1.25-1.25h-3a.75.75,0,0,1,0-1.5h3a2.752,2.752,0,0,1,2.75,2.75v3A.75.75,0,0,1,258.679,1089.365Z" fill="#fff"/>
      <path id="Path_43" data-name="Path 43" d="M256.679,1106.865h-3a.75.75,0,0,1,0-1.5h3a1.252,1.252,0,0,0,1.25-1.25v-3a.75.75,0,0,1,1.5,0v3A2.752,2.752,0,0,1,256.679,1106.865Z" fill="#fff"/>
    </g>
  </g>
</svg>
