<svg xmlns="http://www.w3.org/2000/svg" width="15" height="15" viewBox="0 0 15 15">
  <g id="Group_32" data-name="Group 32" transform="translate(-976 -2237.702)" style="isolation: isolate">
    <circle id="Ellipse_25" data-name="Ellipse 25" cx="7.5" cy="7.5" r="7.5" transform="translate(976 2237.702)" fill="#9c9b9b"/>
    <g id="Group_31" data-name="Group 31">
      <path id="Path_66" data-name="Path 66" d="M988.094,2243.092a3.551,3.551,0,0,1-1.03.282,1.8,1.8,0,0,0,.789-.991,3.633,3.633,0,0,1-1.139.435,1.793,1.793,0,0,0-3.1,1.226,1.831,1.831,0,0,0,.046.409,5.088,5.088,0,0,1-3.7-1.873,1.793,1.793,0,0,0,.555,2.393,1.782,1.782,0,0,1-.812-.224v.022a1.793,1.793,0,0,0,1.438,1.758,1.8,1.8,0,0,1-.81.031,1.8,1.8,0,0,0,1.675,1.245,3.6,3.6,0,0,1-2.654.742,5.1,5.1,0,0,0,7.849-4.3c0-.078,0-.155-.006-.232a3.608,3.608,0,0,0,.9-.928Z" fill="#f0f1f1"/>
    </g>
  </g>
</svg>
