<svg xmlns="http://www.w3.org/2000/svg" width="15" height="15" viewBox="0 0 15 15">
  <g id="Group_35" data-name="Group 35" transform="translate(-1030.667 -2237.702)" style="isolation: isolate">
    <circle id="Ellipse_27" data-name="Ellipse 27" cx="7.5" cy="7.5" r="7.5" transform="translate(1030.667 2237.702)" fill="#9c9b9b"/>
    <g id="Group_34" data-name="Group 34">
      <path id="Path_68" data-name="Path 68" d="M1042.648,2245.806v3.092h-1.793v-2.885c0-.724-.259-1.219-.908-1.219a.98.98,0,0,0-.919.656,1.206,1.206,0,0,0-.06.436v3.012h-1.793s.025-4.886,0-5.392h1.793v.764l-.011.018h.011v-.018a1.784,1.784,0,0,1,1.616-.891c1.18,0,2.064.771,2.064,2.427Zm-7.348-4.9a.934.934,0,1,0-.024,1.863h.012a.934.934,0,1,0,.012-1.863Zm-.908,7.991h1.792v-5.392h-1.792Z" fill="#f0f1f1"/>
    </g>
  </g>
</svg>
