<svg xmlns="http://www.w3.org/2000/svg" width="15" height="15" viewBox="0 0 15 15">
  <g id="Group_36" data-name="Group 36" transform="translate(-1058 -2237.702)" style="isolation: isolate">
    <path id="Path_69" data-name="Path 69" d="M1067.735,2241.693h-4.47a1.3,1.3,0,0,0-1.294,1.294v4.471a1.3,1.3,0,0,0,1.294,1.294h4.47a1.3,1.3,0,0,0,1.3-1.294v-4.471A1.3,1.3,0,0,0,1067.735,2241.693Zm-2.235,5.853a2.323,2.323,0,1,1,2.324-2.323A2.326,2.326,0,0,1,1065.5,2247.546Zm2.4-4.167a.549.549,0,1,1,.549-.55A.55.55,0,0,1,1067.9,2243.379Z" fill="#9c9b9b"/>
    <path id="Path_70" data-name="Path 70" d="M1065.5,2243.881a1.342,1.342,0,1,0,1.342,1.341A1.343,1.343,0,0,0,1065.5,2243.881Z" fill="#9c9b9b"/>
    <path id="Path_71" data-name="Path 71" d="M1065.5,2237.7a7.5,7.5,0,1,0,7.5,7.5A7.5,7.5,0,0,0,1065.5,2237.7Zm4.511,9.756a2.278,2.278,0,0,1-2.276,2.276h-4.47a2.279,2.279,0,0,1-2.276-2.276v-4.471a2.279,2.279,0,0,1,2.276-2.276h4.47a2.278,2.278,0,0,1,2.276,2.276Z" fill="#9c9b9b"/>
  </g>
</svg>
