<svg xmlns="http://www.w3.org/2000/svg" width="66.591" height="71.839" viewBox="0 0 66.591 71.839">
  <g id="Group_4" data-name="Group 4" transform="translate(-225 -512.065)">
    <path id="Path_18" data-name="Path 18" d="M289.951,560.942h-.984V550.773a1.641,1.641,0,0,0-1.641-1.64H272.59a25.261,25.261,0,1,0-22.331,13.449c.437,0,.874-.014,1.312-.037v14.471a6.9,6.9,0,0,0,6.888,6.888h28.867a1.641,1.641,0,0,0,1.641-1.64V572.095h.984a1.64,1.64,0,0,0,1.64-1.64v-7.873A1.64,1.64,0,0,0,289.951,560.942Zm-7.873,7.873a.985.985,0,0,1-.984-.984v-2.625a.985.985,0,0,1,.984-.984h6.233v4.593Zm-21.036-19.682q.276-1.122.5-2.3h8.537a21.91,21.91,0,0,1-1.278,2.3Zm-9.471,6.888v3a3.373,3.373,0,0,1-1.312.279c-3.061,0-6.377-4.819-7.941-12.466H258.2q-.246,1.206-.556,2.347A6.9,6.9,0,0,0,251.571,556.021Zm-23.291-18.7a21.914,21.914,0,0,1,.9-6.232h9.3a54.242,54.242,0,0,0,0,12.465h-9.3A21.916,21.916,0,0,1,228.28,537.323Zm13.122,0a50.122,50.122,0,0,1,.379-6.232h16.956a51.37,51.37,0,0,1,0,12.465H241.781A50.139,50.139,0,0,1,241.4,537.323Zm8.857-21.978c3.06,0,6.376,4.819,7.94,12.465H242.318C243.882,520.164,247.2,515.345,250.259,515.345Zm21.978,21.978a22,22,0,0,1-.9,6.233h-9.3a54.354,54.354,0,0,0,0-12.465h9.3A21.914,21.914,0,0,1,272.237,537.323Zm-2.167-9.513h-8.529a35.8,35.8,0,0,0-2.36-7.854,21.152,21.152,0,0,0-1.919-3.467A22.1,22.1,0,0,1,270.07,527.81Zm-26.815-11.321a21.152,21.152,0,0,0-1.919,3.467,35.8,35.8,0,0,0-2.359,7.854h-8.529A22.1,22.1,0,0,1,243.255,516.489Zm-12.807,30.347h8.528a35.781,35.781,0,0,0,2.36,7.854,21.111,21.111,0,0,0,1.919,3.467A22.088,22.088,0,0,1,230.448,546.836Zm55.238,33.788H258.459a3.613,3.613,0,0,1-3.608-3.608V556.021a3.612,3.612,0,0,1,3.608-3.608h27.227v8.529h-3.608a4.269,4.269,0,0,0-4.265,4.264v2.625a4.27,4.27,0,0,0,4.265,4.264h3.608Z" fill="#6b00a3"/>
    <path id="Path_19" data-name="Path 19" d="M265.02,560.286h3.937a.985.985,0,0,1,.984.984,1.64,1.64,0,0,0,3.28,0,4.27,4.27,0,0,0-4.264-4.265h-.985v-.984a1.64,1.64,0,1,0-3.28,0v.995a5.577,5.577,0,0,0,.328,11.143h2.624a2.3,2.3,0,1,1,0,4.592h-3.772a.985.985,0,0,1-.984-.984,1.64,1.64,0,1,0-3.28,0,4.268,4.268,0,0,0,4.264,4.264h.82v.985a1.64,1.64,0,1,0,3.28,0v-.995a5.577,5.577,0,0,0-.328-11.143H265.02a2.3,2.3,0,1,1,0-4.592Z" fill="#6b00a3"/>
  </g>
</svg>
