<svg xmlns="http://www.w3.org/2000/svg" width="67" height="67" viewBox="0 0 67 67">
  <g id="Group_12" data-name="Group 12" transform="translate(-810.5 -513.336)">
    <path id="Path_23" data-name="Path 23" d="M844,580.336a33.5,33.5,0,1,1,23.688-9.811A33.281,33.281,0,0,1,844,580.336Zm0-62.812a29.313,29.313,0,1,0,29.313,29.312A29.346,29.346,0,0,0,844,517.524Z" fill="#6b00a3"/>
    <path id="Path_24" data-name="Path 24" d="M851.624,546.836a8.365,8.365,0,0,0-2.39-14.043v-2.707a2.094,2.094,0,0,0-4.187,0v2.094h-4.188v-2.094a2.094,2.094,0,0,0-4.187,0v2.094h-4.188a2.094,2.094,0,0,0,0,4.188h2.094V557.3h-2.094a2.094,2.094,0,0,0,0,4.188h4.188v2.093a2.094,2.094,0,1,0,4.187,0v-2.093h4.188v2.093a2.094,2.094,0,1,0,4.187,0v-2.707a8.366,8.366,0,0,0,2.39-14.043Zm-12.858-10.468h7.328a4.188,4.188,0,0,1,0,8.375h-7.328Zm7.328,20.937h-7.328V548.93h7.328a4.188,4.188,0,0,1,0,8.375Z" fill="#6b00a3"/>
  </g>
</svg>
