<svg xmlns="http://www.w3.org/2000/svg" width="57.595" height="45.255" viewBox="0 0 57.595 45.255">
  <g id="Group_11" data-name="Group 11" transform="translate(-521.794 -525.357)">
    <g id="Group_6" data-name="Group 6">
      <g id="Group_5" data-name="Group 5">
        <path id="Path_20" data-name="Path 20" d="M578.789,534.164l0,0,0,0-8.228-8.227a2.057,2.057,0,0,0-2.908,2.908l4.718,4.719h-11.49a14.414,14.414,0,0,0-14.4,14.4,10.3,10.3,0,0,1-10.285,10.285H523.851a2.057,2.057,0,0,0,0,4.114h12.341a14.416,14.416,0,0,0,14.4-14.4,10.3,10.3,0,0,1,10.284-10.284h11.49l-4.716,4.716a2.057,2.057,0,1,0,2.858,2.959l.05-.05,8.228-8.228A2.057,2.057,0,0,0,578.789,534.164Z" fill="#6b00a3"/>
      </g>
    </g>
    <g id="Group_8" data-name="Group 8">
      <g id="Group_7" data-name="Group 7">
        <path id="Path_21" data-name="Path 21" d="M578.789,558.847l0,0,0,0-8.228-8.228a2.057,2.057,0,0,0-2.908,2.908l4.718,4.719h-11.49a10.267,10.267,0,0,1-6.857-2.619,2.057,2.057,0,0,0-2.744,3.065,14.377,14.377,0,0,0,9.6,3.668h11.49l-4.716,4.716a2.057,2.057,0,1,0,2.858,2.959l.05-.05,8.228-8.228A2.057,2.057,0,0,0,578.789,558.847Z" fill="#6b00a3"/>
      </g>
    </g>
    <g id="Group_10" data-name="Group 10">
      <g id="Group_9" data-name="Group 9">
        <path id="Path_22" data-name="Path 22" d="M545.794,537.229a14.373,14.373,0,0,0-9.6-3.667H523.851a2.057,2.057,0,0,0,0,4.114h12.341a10.267,10.267,0,0,1,6.858,2.618,2.057,2.057,0,0,0,2.744-3.065Z" fill="#6b00a3"/>
      </g>
    </g>
  </g>
</svg>
