<svg xmlns="http://www.w3.org/2000/svg" xmlns:xlink="http://www.w3.org/1999/xlink" width="460.01" height="261.914" viewBox="0 0 460.01 261.914">
  <defs>
    <linearGradient id="linear-gradient" x1="0.5" y1="1.127" x2="0.5" y2="-0.249" gradientUnits="objectBoundingBox">
      <stop offset="0" stop-color="#39ecff" stop-opacity="0"/>
      <stop offset="0.107" stop-color="#3fcbf2" stop-opacity="0.137"/>
      <stop offset="0.415" stop-color="#5274d0" stop-opacity="0.506"/>
      <stop offset="0.677" stop-color="#5f35b7" stop-opacity="0.773"/>
      <stop offset="0.88" stop-color="#670ea8" stop-opacity="0.937"/>
      <stop offset="1" stop-color="#6b00a3"/>
    </linearGradient>
    <filter id="Ellipse_1" x="268.854" y="0" width="71.901" height="71.901" filterUnits="userSpaceOnUse">
      <feOffset dx="4" dy="4" input="SourceAlpha"/>
      <feGaussianBlur stdDeviation="5" result="blur"/>
      <feFlood flood-opacity="0.251"/>
      <feComposite operator="in" in2="blur"/>
      <feComposite in="SourceGraphic"/>
    </filter>
    <filter id="Ellipse_2" x="289.805" y="30.374" width="71.901" height="71.901" filterUnits="userSpaceOnUse">
      <feOffset dx="4" dy="4" input="SourceAlpha"/>
      <feGaussianBlur stdDeviation="5" result="blur-2"/>
      <feFlood flood-opacity="0.251"/>
      <feComposite operator="in" in2="blur-2"/>
      <feComposite in="SourceGraphic"/>
    </filter>
    <filter id="Ellipse_3" x="261.971" y="58.208" width="71.901" height="71.901" filterUnits="userSpaceOnUse">
      <feOffset dx="4" dy="4" input="SourceAlpha"/>
      <feGaussianBlur stdDeviation="5" result="blur-3"/>
      <feFlood flood-opacity="0.251"/>
      <feComposite operator="in" in2="blur-3"/>
      <feComposite in="SourceGraphic"/>
    </filter>
  </defs>
  <g id="Group_37" data-name="Group 37" transform="translate(-614.137 -166.021)">
    <path id="Path_2" data-name="Path 2" d="M957.726,274.166c-16.8-4.859-31.311-9.055-45.491-9.055-19.169,0-35,19.73-50.306,38.809-15.615,19.463-31.779,39.594-51.5,38.129-17.606-1.3-28.469-9.806-39.97-18.81-13.487-10.559-27.441-21.483-53.722-20.716-47.586,1.379-99.843,92.456-100.366,93.376a1,1,0,0,1-1.363.376l-.006-.006v31.666h458.412V284.769a.991.991,0,0,1-.252.094C1022.859,293,986.745,282.558,957.726,274.166Z" fill="url(#linear-gradient)" style="mix-blend-mode: hue;isolation: isolate"/>
    <g transform="matrix(1, 0, 0, 1, 614.14, 166.02)" filter="url(#Ellipse_1)">
      <circle id="Ellipse_1-2" data-name="Ellipse 1" cx="20.95" cy="20.95" r="20.95" transform="translate(279.85 11)" fill="#163b72"/>
    </g>
    <path id="Path_3" data-name="Path 3" d="M615.5,396.4s52.5-92.47,101.206-93.882,55.588,36.706,93.794,39.53,62.206-76.942,101.735-76.942S994.471,297.582,1073,284.876" fill="none" stroke="#6b00a3" stroke-linecap="round" stroke-miterlimit="10" stroke-width="2" fill-rule="evenodd"/>
    <g transform="matrix(1, 0, 0, 1, 614.14, 166.02)" filter="url(#Ellipse_2)">
      <circle id="Ellipse_2-2" data-name="Ellipse 2" cx="20.95" cy="20.95" r="20.95" transform="translate(300.8 41.37)" fill="#39ecff"/>
    </g>
    <g transform="matrix(1, 0, 0, 1, 614.14, 166.02)" filter="url(#Ellipse_3)">
      <circle id="Ellipse_3-2" data-name="Ellipse 3" cx="20.95" cy="20.95" r="20.95" transform="translate(272.97 69.21)" fill="#ffce00"/>
    </g>
    <path id="Path_4" data-name="Path 4" d="M913.27,256.179a4.742,4.742,0,0,0-1.355-7.96v-1.534a1.186,1.186,0,1,0-2.373,0v1.187h-2.374v-1.187a1.187,1.187,0,1,0-2.373,0v1.187h-2.374a1.187,1.187,0,1,0,0,2.373h1.187v11.868h-1.187a1.187,1.187,0,1,0,0,2.374h2.374v1.187a1.187,1.187,0,1,0,2.373,0v-1.187h2.374v1.187a1.186,1.186,0,1,0,2.373,0v-1.535a4.742,4.742,0,0,0,1.355-7.96Zm-7.289-5.934h4.154a2.374,2.374,0,0,1,0,4.748h-4.154Zm4.154,11.868h-4.154v-4.747h4.154a2.374,2.374,0,1,1,0,4.747Z" fill="#575756"/>
    <g id="Group_1" data-name="Group 1">
      <path id="Path_5" data-name="Path 5" d="M926.859,229.4l8.727,3.649a.8.8,0,0,0,.612,0l8.726-3.649a.8.8,0,0,0,.34-1.194l-8.727-12.217a.794.794,0,0,0-1.291,0L926.52,228.2a.794.794,0,0,0,.339,1.194Zm9.826,1.725v-12.2l6.71,9.394Zm-1.587-12.2v12.2l-6.709-2.805Z" fill="#3b78ff"/>
      <path id="Path_6" data-name="Path 6" d="M945.288,231.939a.8.8,0,0,0-.976-.307l-8.42,3.521-8.421-3.521a.793.793,0,0,0-.837,1.321l8.726,7.881a.791.791,0,0,0,1.063,0l8.727-7.881a.794.794,0,0,0,.138-1.014Zm-9.4,7.237-4.751-4.289,4.445,1.858a.792.792,0,0,0,.612,0l4.444-1.858-4.75,4.289Z" fill="#3b78ff"/>
    </g>
    <path id="Path_7" data-name="Path 7" d="M910.262,205.482a2.7,2.7,0,0,0,2.151,1.057h8.879a1.182,1.182,0,0,0,0-2.363h-8.879a.355.355,0,0,1-.343-.444l1.458-5.559,3.448-1.277a1.181,1.181,0,0,0-.82-2.216l-1.9.7,1.441-5.5a1.181,1.181,0,0,0-2.285-.6l-1.861,7.1-3.373,1.25a1.181,1.181,0,1,0,.821,2.215l1.82-.674-1.037,3.958A2.694,2.694,0,0,0,910.262,205.482Z" fill="#3b78ff"/>
  </g>
</svg>
