<svg xmlns="http://www.w3.org/2000/svg" width="143.455" height="25.984" viewBox="0 0 143.455 25.984">
  <g id="logo2" transform="translate(-128 -2227.901)" style="isolation: isolate">
    <g id="Group_29" data-name="Group 29" style="isolation: isolate">
      <path id="Path_56" data-name="Path 56" d="M128,2238.1a10.464,10.464,0,0,1,.62-3.513,9.734,9.734,0,0,1,1.805-3.128,9.243,9.243,0,0,1,2.921-2.245,8.685,8.685,0,0,1,3.94-.868,8.161,8.161,0,0,1,4.478,1.185,7.2,7.2,0,0,1,2.741,3.086l-1.515.936a5.815,5.815,0,0,0-1.144-1.625,6.364,6.364,0,0,0-1.446-1.075,6.11,6.11,0,0,0-1.6-.592,7.615,7.615,0,0,0-1.625-.179,6.539,6.539,0,0,0-3.114.716,7.165,7.165,0,0,0-2.273,1.874,8.149,8.149,0,0,0-1.392,2.6,9.475,9.475,0,0,0-.468,2.934,8.692,8.692,0,0,0,.565,3.114,8.792,8.792,0,0,0,1.543,2.631,7.4,7.4,0,0,0,2.314,1.819,6.357,6.357,0,0,0,2.907.675,7.3,7.3,0,0,0,1.7-.207,6.5,6.5,0,0,0,1.681-.661,7.085,7.085,0,0,0,1.5-1.13,5.859,5.859,0,0,0,1.157-1.639l1.6.827a5.987,5.987,0,0,1-1.323,1.942,8.668,8.668,0,0,1-1.9,1.419,9.469,9.469,0,0,1-2.218.882,9.159,9.159,0,0,1-2.3.3,7.822,7.822,0,0,1-3.692-.882,9.648,9.648,0,0,1-2.893-2.3,10.641,10.641,0,0,1-1.888-3.224A10.416,10.416,0,0,1,128,2238.1Z" fill="#9c9b9b"/>
      <path id="Path_57" data-name="Path 57" d="M154.976,2235.313a5.9,5.9,0,0,0-3.307,1.047,5.28,5.28,0,0,0-1.984,2.728v8.928h-1.874V2233.66h1.764v3.444a6.536,6.536,0,0,1,2.149-2.59,4.984,4.984,0,0,1,2.893-.937,1.938,1.938,0,0,1,.359.027Z" fill="#9c9b9b"/>
      <path id="Path_58" data-name="Path 58" d="M157.483,2230.656V2227.9h1.874v2.755Zm0,17.36V2233.66h1.874v14.356Z" fill="#9c9b9b"/>
      <path id="Path_59" data-name="Path 59" d="M170.819,2248.291a5.667,5.667,0,0,1-3.21-.923,7.327,7.327,0,0,1-2.246-2.328v8.845H163.49V2233.66h1.68v2.783a6.977,6.977,0,0,1,2.287-2.191,5.855,5.855,0,0,1,3.059-.84,6.005,6.005,0,0,1,2.728.62,7.011,7.011,0,0,1,2.149,1.653,7.672,7.672,0,0,1,1.419,2.383,7.821,7.821,0,0,1,.51,2.783,8.687,8.687,0,0,1-.468,2.866,7.326,7.326,0,0,1-1.337,2.37,6.406,6.406,0,0,1-2.067,1.612A5.851,5.851,0,0,1,170.819,2248.291Zm-.523-1.653a4.488,4.488,0,0,0,2.108-.5,5.253,5.253,0,0,0,1.625-1.309,5.876,5.876,0,0,0,1.033-1.846,6.473,6.473,0,0,0,.359-2.136,5.96,5.96,0,0,0-.413-2.2,6.109,6.109,0,0,0-1.13-1.846,5.38,5.38,0,0,0-1.7-1.268,4.821,4.821,0,0,0-2.108-.468,4.337,4.337,0,0,0-1.5.289,6.2,6.2,0,0,0-1.46.772,5.194,5.194,0,0,0-1.157,1.129,3.049,3.049,0,0,0-.593,1.365v4.408a6.6,6.6,0,0,0,.841,1.433,5.907,5.907,0,0,0,1.157,1.144,5.521,5.521,0,0,0,1.391.757A4.409,4.409,0,0,0,170.3,2246.638Z" fill="#9c9b9b"/>
      <path id="Path_60" data-name="Path 60" d="M187.187,2247.327c-.111.055-.272.128-.483.22s-.454.184-.73.276a8.37,8.37,0,0,1-.937.248,5.37,5.37,0,0,1-1.1.11,4.015,4.015,0,0,1-1.157-.165,2.7,2.7,0,0,1-.964-.51,2.519,2.519,0,0,1-.662-.868,2.807,2.807,0,0,1-.248-1.213v-10.277H178.92v-1.488H180.9v-4.85h1.874v4.85h3.306v1.488h-3.306v9.754a1.488,1.488,0,0,0,.565,1.171,1.933,1.933,0,0,0,1.171.372,3.515,3.515,0,0,0,1.4-.262,6.139,6.139,0,0,0,.772-.372Z" fill="#9c9b9b"/>
      <path id="Path_61" data-name="Path 61" d="M195.288,2248.291a6.807,6.807,0,0,1-2.866-.592,7.034,7.034,0,0,1-2.246-1.612,7.332,7.332,0,0,1-1.474-2.37,7.781,7.781,0,0,1-.523-2.838,7.689,7.689,0,0,1,.537-2.866,7.492,7.492,0,0,1,1.488-2.369,7.219,7.219,0,0,1,2.246-1.626,6.609,6.609,0,0,1,2.838-.606,6.7,6.7,0,0,1,2.852.606,7.171,7.171,0,0,1,2.259,1.626,7.492,7.492,0,0,1,1.488,2.369,7.669,7.669,0,0,1,.537,2.866,7.781,7.781,0,0,1-.523,2.838,7.315,7.315,0,0,1-1.474,2.37,7.005,7.005,0,0,1-2.26,1.612A6.9,6.9,0,0,1,195.288,2248.291Zm-5.208-7.384a6,6,0,0,0,.413,2.245,6.118,6.118,0,0,0,1.116,1.819,5.06,5.06,0,0,0,1.654,1.226,4.75,4.75,0,0,0,2.025.441,4.638,4.638,0,0,0,2.025-.455,5.376,5.376,0,0,0,1.667-1.24,5.905,5.905,0,0,0,1.13-1.832,6.349,6.349,0,0,0,0-4.505,5.866,5.866,0,0,0-1.13-1.846,5.372,5.372,0,0,0-1.667-1.24,4.638,4.638,0,0,0-2.025-.455,4.55,4.55,0,0,0-2.012.455,5.337,5.337,0,0,0-1.653,1.253,6.051,6.051,0,0,0-1.13,1.86A6.221,6.221,0,0,0,190.08,2240.907Z" fill="#9c9b9b"/>
      <path id="Path_62" data-name="Path 62" d="M204.27,2240.8a7.855,7.855,0,0,1,.524-2.865,6.986,6.986,0,0,1,1.515-2.37,7.4,7.4,0,0,1,2.4-1.626,7.924,7.924,0,0,1,3.169-.606,7.6,7.6,0,0,1,4.036,1.019,6.519,6.519,0,0,1,2.494,2.673l-3.61,1.1a3.245,3.245,0,0,0-1.24-1.227,3.475,3.475,0,0,0-1.708-.427,3.517,3.517,0,0,0-1.488.317,3.668,3.668,0,0,0-1.2.882,4.085,4.085,0,0,0-.8,1.364,5.147,5.147,0,0,0-.289,1.763,4.941,4.941,0,0,0,.3,1.764,4.425,4.425,0,0,0,.813,1.377,3.562,3.562,0,0,0,1.2.9,3.442,3.442,0,0,0,1.46.317,3.536,3.536,0,0,0,1.832-.5,2.784,2.784,0,0,0,1.171-1.213l3.61,1.1a6.072,6.072,0,0,1-2.452,2.7,7.71,7.71,0,0,1-4.106,1.047,7.927,7.927,0,0,1-3.169-.606,7.173,7.173,0,0,1-3.926-4.037A7.715,7.715,0,0,1,204.27,2240.8Z" fill="#9c9b9b"/>
      <path id="Path_63" data-name="Path 63" d="M227.251,2248.291a7.927,7.927,0,0,1-3.169-.606,7.123,7.123,0,0,1-2.383-1.639,7.238,7.238,0,0,1-1.5-2.384,8.038,8.038,0,0,1,0-5.7,7.224,7.224,0,0,1,1.5-2.383,7.111,7.111,0,0,1,2.383-1.64,7.927,7.927,0,0,1,3.169-.606,7.831,7.831,0,0,1,3.155.606,7.157,7.157,0,0,1,2.37,1.64,7.238,7.238,0,0,1,1.5,2.383,8.023,8.023,0,0,1,0,5.7,7.367,7.367,0,0,1-1.488,2.384,6.975,6.975,0,0,1-2.369,1.639A7.931,7.931,0,0,1,227.251,2248.291Zm-3.775-7.467a5.007,5.007,0,0,0,.29,1.75,4.247,4.247,0,0,0,.8,1.363,3.571,3.571,0,0,0,1.2.9,3.652,3.652,0,0,0,2.976,0,3.571,3.571,0,0,0,1.2-.9,4.248,4.248,0,0,0,.8-1.377,5.149,5.149,0,0,0,.289-1.764,5.064,5.064,0,0,0-.289-1.736,4.258,4.258,0,0,0-.8-1.377,3.571,3.571,0,0,0-1.2-.9,3.517,3.517,0,0,0-1.488-.317,3.385,3.385,0,0,0-1.488.331,3.734,3.734,0,0,0-1.2.909,4.225,4.225,0,0,0-.8,1.378A5.037,5.037,0,0,0,223.476,2240.824Z" fill="#9c9b9b"/>
      <path id="Path_64" data-name="Path 64" d="M237.28,2231.565V2227.9h3.693v3.664Zm0,16.451v-14.439h3.693v14.439Z" fill="#9c9b9b"/>
      <path id="Path_65" data-name="Path 65" d="M257.726,2248.016h-3.692v-8.1a4.229,4.229,0,0,0-.606-2.535,1.993,1.993,0,0,0-1.681-.8,3.162,3.162,0,0,0-1.13.221,4.174,4.174,0,0,0-1.089.62,5.026,5.026,0,0,0-.923.951,3.75,3.75,0,0,0-.606,1.212v8.432h-3.692v-14.439h3.334v2.673a5.47,5.47,0,0,1,2.315-2.15,7.424,7.424,0,0,1,3.417-.771,4.35,4.35,0,0,1,2.2.5,3.581,3.581,0,0,1,1.322,1.3,5.415,5.415,0,0,1,.648,1.819,11.948,11.948,0,0,1,.179,2.066Z" fill="#9c9b9b"/>
    </g>
    <circle id="Ellipse_22" data-name="Ellipse 22" cx="1.921" cy="1.921" r="1.921" transform="translate(261.72 2229.677)" fill="#9c9b9b"/>
    <circle id="Ellipse_23" data-name="Ellipse 23" cx="1.921" cy="1.921" r="1.921" transform="translate(267.614 2233.152)" fill="#9c9b9b"/>
    <circle id="Ellipse_24" data-name="Ellipse 24" cx="1.921" cy="1.921" r="1.921" transform="translate(267.614 2228.182)" fill="#9c9b9b"/>
  </g>
</svg>
