<svg xmlns="http://www.w3.org/2000/svg" width="143.455" height="25.984" viewBox="0 0 143.455 25.984">
  <g id="Group_3" data-name="Group 3" transform="translate(-128.932 -56.712)">
    <g id="Group_2" data-name="Group 2">
      <path id="Path_8" data-name="Path 8" d="M128.932,66.907a10.467,10.467,0,0,1,.619-3.513,9.748,9.748,0,0,1,1.805-3.127,9.265,9.265,0,0,1,2.921-2.246,8.687,8.687,0,0,1,3.94-.868,8.161,8.161,0,0,1,4.478,1.185,7.207,7.207,0,0,1,2.742,3.086l-1.516.937a5.786,5.786,0,0,0-1.143-1.626,6.365,6.365,0,0,0-1.447-1.074,6.115,6.115,0,0,0-1.6-.593,7.689,7.689,0,0,0-1.626-.179,6.544,6.544,0,0,0-3.113.716,7.181,7.181,0,0,0-2.274,1.874,8.188,8.188,0,0,0-1.391,2.6,9.457,9.457,0,0,0-.469,2.935,8.686,8.686,0,0,0,.565,3.113,8.819,8.819,0,0,0,1.543,2.632,7.408,7.408,0,0,0,2.315,1.818,6.344,6.344,0,0,0,2.907.676,7.283,7.283,0,0,0,1.694-.207,6.507,6.507,0,0,0,1.681-.662,7.063,7.063,0,0,0,1.5-1.129,5.828,5.828,0,0,0,1.157-1.64l1.6.827a5.975,5.975,0,0,1-1.322,1.942,8.7,8.7,0,0,1-1.9,1.42,9.522,9.522,0,0,1-2.219.881,9.153,9.153,0,0,1-2.3.3,7.827,7.827,0,0,1-3.693-.881,9.69,9.69,0,0,1-2.893-2.3,10.662,10.662,0,0,1-1.887-3.224A10.4,10.4,0,0,1,128.932,66.907Z" fill="#fff"/>
      <path id="Path_9" data-name="Path 9" d="M155.907,64.124a5.9,5.9,0,0,0-3.306,1.047,5.285,5.285,0,0,0-1.984,2.728v8.928h-1.874V62.471h1.764v3.444a6.528,6.528,0,0,1,2.149-2.59,4.984,4.984,0,0,1,2.893-.937,1.913,1.913,0,0,1,.358.028Z" fill="#fff"/>
      <path id="Path_10" data-name="Path 10" d="M158.415,59.468V56.712h1.873v2.756Zm0,17.359V62.471h1.873V76.827Z" fill="#fff"/>
      <path id="Path_11" data-name="Path 11" d="M171.751,77.1a5.672,5.672,0,0,1-3.21-.923,7.341,7.341,0,0,1-2.246-2.329V82.7h-1.874V62.471H166.1v2.783a6.955,6.955,0,0,1,2.287-2.19,5.848,5.848,0,0,1,3.059-.841,6.019,6.019,0,0,1,2.728.62,7.025,7.025,0,0,1,2.149,1.653,7.687,7.687,0,0,1,1.419,2.384,7.814,7.814,0,0,1,.51,2.783,8.681,8.681,0,0,1-.469,2.865,7.3,7.3,0,0,1-1.336,2.37,6.429,6.429,0,0,1-2.067,1.612A5.858,5.858,0,0,1,171.751,77.1Zm-.524-1.654a4.48,4.48,0,0,0,2.108-.5,5.239,5.239,0,0,0,1.626-1.308,5.881,5.881,0,0,0,1.033-1.847,6.492,6.492,0,0,0,.358-2.135,5.956,5.956,0,0,0-.413-2.2,6.1,6.1,0,0,0-1.13-1.847,5.372,5.372,0,0,0-1.694-1.267,4.825,4.825,0,0,0-2.108-.469,4.342,4.342,0,0,0-1.5.29,6.159,6.159,0,0,0-1.46.771,5.2,5.2,0,0,0-1.158,1.13,3.047,3.047,0,0,0-.592,1.364V71.84a6.575,6.575,0,0,0,.84,1.433,5.91,5.91,0,0,0,1.158,1.143,5.522,5.522,0,0,0,1.391.758A4.4,4.4,0,0,0,171.227,75.449Z" fill="#fff"/>
      <path id="Path_12" data-name="Path 12" d="M188.118,76.138q-.165.083-.482.221c-.211.092-.455.184-.73.275a8.441,8.441,0,0,1-.937.248,5.377,5.377,0,0,1-1.1.11,4.022,4.022,0,0,1-1.158-.165,2.7,2.7,0,0,1-.964-.51,2.506,2.506,0,0,1-.661-.868,2.788,2.788,0,0,1-.248-1.212V63.959h-1.984V62.471h1.984V57.622h1.873v4.849h3.307v1.488h-3.307v9.755a1.484,1.484,0,0,0,.565,1.17,1.932,1.932,0,0,0,1.172.373,3.511,3.511,0,0,0,1.4-.262,6.4,6.4,0,0,0,.771-.372Z" fill="#fff"/>
      <path id="Path_13" data-name="Path 13" d="M196.219,77.1a6.8,6.8,0,0,1-2.865-.593,7.036,7.036,0,0,1-2.246-1.612,7.294,7.294,0,0,1-1.474-2.37,7.777,7.777,0,0,1-.524-2.838,7.66,7.66,0,0,1,.538-2.865,7.508,7.508,0,0,1,1.488-2.37,7.245,7.245,0,0,1,2.245-1.626,6.61,6.61,0,0,1,2.838-.606,6.705,6.705,0,0,1,2.852.606,7.2,7.2,0,0,1,2.26,1.626,7.508,7.508,0,0,1,1.488,2.37,7.68,7.68,0,0,1,.537,2.865,7.8,7.8,0,0,1-.523,2.838,7.313,7.313,0,0,1-1.475,2.37A6.992,6.992,0,0,1,199.1,76.51,6.905,6.905,0,0,1,196.219,77.1Zm-5.207-7.385a5.986,5.986,0,0,0,.413,2.246,6.081,6.081,0,0,0,1.116,1.818,5.028,5.028,0,0,0,1.653,1.226,4.741,4.741,0,0,0,2.025.441A4.638,4.638,0,0,0,198.245,75a5.387,5.387,0,0,0,1.667-1.24,5.9,5.9,0,0,0,1.129-1.833,6.335,6.335,0,0,0,0-4.5,5.865,5.865,0,0,0-1.129-1.846,5.387,5.387,0,0,0-1.667-1.24,4.638,4.638,0,0,0-2.026-.455,4.546,4.546,0,0,0-2.011.455,5.313,5.313,0,0,0-1.653,1.254,6.032,6.032,0,0,0-1.13,1.86A6.2,6.2,0,0,0,191.012,69.718Z" fill="#fff"/>
      <path id="Path_14" data-name="Path 14" d="M205.2,69.608a7.859,7.859,0,0,1,.523-2.866,6.989,6.989,0,0,1,1.516-2.37,7.377,7.377,0,0,1,2.4-1.625,7.928,7.928,0,0,1,3.169-.607,7.6,7.6,0,0,1,4.037,1.02,6.524,6.524,0,0,1,2.494,2.673l-3.61,1.1a3.25,3.25,0,0,0-1.24-1.226,3.465,3.465,0,0,0-1.709-.427,3.52,3.52,0,0,0-1.488.317,3.662,3.662,0,0,0-1.2.881,4.1,4.1,0,0,0-.8,1.364,5.148,5.148,0,0,0-.289,1.764,4.91,4.91,0,0,0,.3,1.763,4.44,4.44,0,0,0,.812,1.378,3.585,3.585,0,0,0,1.2.9,3.455,3.455,0,0,0,1.46.316,3.54,3.54,0,0,0,1.833-.5,2.782,2.782,0,0,0,1.171-1.212l3.61,1.1a6.072,6.072,0,0,1-2.453,2.7,7.706,7.706,0,0,1-4.1,1.047,7.928,7.928,0,0,1-3.169-.607,7.172,7.172,0,0,1-3.927-4.036A7.719,7.719,0,0,1,205.2,69.608Z" fill="#ffce00"/>
      <path id="Path_15" data-name="Path 15" d="M228.183,77.1a7.928,7.928,0,0,1-3.169-.607,7.1,7.1,0,0,1-2.384-1.639,7.25,7.25,0,0,1-1.5-2.384,8.035,8.035,0,0,1,0-5.7,7.26,7.26,0,0,1,1.5-2.384,7.111,7.111,0,0,1,2.384-1.639,7.928,7.928,0,0,1,3.169-.607,7.832,7.832,0,0,1,3.155.607,7.149,7.149,0,0,1,2.369,1.639,7.244,7.244,0,0,1,1.5,2.384,8.02,8.02,0,0,1,0,5.7,7.347,7.347,0,0,1-1.488,2.384,6.95,6.95,0,0,1-2.37,1.639A7.923,7.923,0,0,1,228.183,77.1Zm-3.775-7.468a5.031,5.031,0,0,0,.289,1.75,4.283,4.283,0,0,0,.8,1.364,3.575,3.575,0,0,0,1.2.9,3.661,3.661,0,0,0,2.976,0,3.591,3.591,0,0,0,1.2-.9,4.245,4.245,0,0,0,.8-1.378,5.139,5.139,0,0,0,.289-1.763,5.06,5.06,0,0,0-.289-1.736,4.245,4.245,0,0,0-.8-1.378,3.575,3.575,0,0,0-1.2-.9,3.526,3.526,0,0,0-1.488-.317,3.4,3.4,0,0,0-1.488.33,3.741,3.741,0,0,0-1.2.91,4.24,4.24,0,0,0-.8,1.377A5.063,5.063,0,0,0,224.408,69.635Z" fill="#ffce00"/>
      <path id="Path_16" data-name="Path 16" d="M238.212,60.377V56.712H241.9v3.665Zm0,16.45V62.388H241.9V76.827Z" fill="#ffce00"/>
      <path id="Path_17" data-name="Path 17" d="M258.657,76.827h-3.692v-8.1a4.222,4.222,0,0,0-.606-2.535,1.99,1.99,0,0,0-1.681-.8,3.173,3.173,0,0,0-1.129.22,4.2,4.2,0,0,0-1.089.62,5.055,5.055,0,0,0-.923.951,3.75,3.75,0,0,0-.606,1.212v8.432h-3.693V62.388h3.335v2.673a5.465,5.465,0,0,1,2.314-2.149,7.429,7.429,0,0,1,3.417-.772,4.356,4.356,0,0,1,2.2.5,3.592,3.592,0,0,1,1.323,1.295,5.453,5.453,0,0,1,.648,1.819,11.969,11.969,0,0,1,.178,2.067Z" fill="#ffce00"/>
    </g>
    <circle id="Ellipse_5" data-name="Ellipse 5" cx="1.921" cy="1.921" r="1.921" transform="translate(262.652 58.489)" fill="#ffce00"/>
    <circle id="Ellipse_6" data-name="Ellipse 6" cx="1.921" cy="1.921" r="1.921" transform="translate(268.545 61.964)" fill="#ffce00"/>
    <circle id="Ellipse_7" data-name="Ellipse 7" cx="1.921" cy="1.921" r="1.921" transform="translate(268.545 56.993)" fill="#ffce00"/>
  </g>
</svg>
